<svg width="24" height="24" viewBox="0 0 24 24" fill="none" xmlns="http://www.w3.org/2000/svg">
<path d="M5.26875 9.75C5.2675 8.86086 5.44217 7.98025 5.78271 7.1589C6.12325 6.33755 6.62292 5.59169 7.25294 4.96428C7.88297 4.33687 8.6309 3.8403 9.45366 3.50318C10.2764 3.16606 11.1577 2.99505 12.0469 3C15.7594 3.02813 18.7312 6.1125 18.7312 9.83438V10.5C18.7312 13.8563 19.4344 15.8063 20.0531 16.875C20.1188 16.9888 20.1535 17.1179 20.1536 17.2493C20.1537 17.3808 20.1193 17.5099 20.0538 17.6239C19.9883 17.7378 19.894 17.8325 19.7803 17.8985C19.6667 17.9645 19.5377 17.9995 19.4062 18H4.59375C4.46232 17.9995 4.33332 17.9645 4.21967 17.8985C4.10603 17.8325 4.01172 17.7378 3.94621 17.6239C3.8807 17.5099 3.84627 17.3808 3.84639 17.2493C3.84651 17.1179 3.88116 16.9888 3.94687 16.875C4.56562 15.8063 5.26875 13.8563 5.26875 10.5V9.75Z" stroke="#191C1F" stroke-width="1.5" stroke-linecap="round" stroke-linejoin="round"/>
<path d="M9 18V18.75C9 19.5456 9.31607 20.3087 9.87868 20.8713C10.4413 21.4339 11.2044 21.75 12 21.75C12.7956 21.75 13.5587 21.4339 14.1213 20.8713C14.6839 20.3087 15 19.5456 15 18.75V18" stroke="#191C1F" stroke-width="1.5" stroke-linecap="round" stroke-linejoin="round"/>
</svg>
