<svg width="16" height="16" viewBox="0 0 16 16" fill="none" xmlns="http://www.w3.org/2000/svg">
<path d="M13.4999 2.99976H2.49994C2.2238 2.99976 1.99994 3.22361 1.99994 3.49976V12.4998C1.99994 12.7759 2.2238 12.9998 2.49994 12.9998H13.4999C13.7761 12.9998 13.9999 12.7759 13.9999 12.4998V3.49976C13.9999 3.22361 13.7761 2.99976 13.4999 2.99976Z" stroke="#292929" stroke-linecap="round" stroke-linejoin="round"/>
<path d="M1.99994 10.4997L5.14369 7.35595C5.19021 7.30871 5.24567 7.27119 5.30683 7.24558C5.36799 7.21997 5.43363 7.20679 5.49994 7.20679C5.56624 7.20679 5.63189 7.21997 5.69305 7.24558C5.75421 7.27119 5.80966 7.30871 5.85619 7.35595L8.64369 10.1435C8.69021 10.1907 8.74567 10.2282 8.80683 10.2538C8.86799 10.2794 8.93363 10.2926 8.99994 10.2926C9.06624 10.2926 9.13189 10.2794 9.19305 10.2538C9.25421 10.2282 9.30966 10.1907 9.35619 10.1435L10.6437 8.85595C10.6902 8.80871 10.7457 8.77119 10.8068 8.74558C10.868 8.71997 10.9336 8.70679 10.9999 8.70679C11.0662 8.70679 11.1319 8.71997 11.193 8.74558C11.2542 8.77119 11.3097 8.80871 11.3562 8.85595L13.9999 11.4997" stroke="#191C1F" stroke-linecap="round" stroke-linejoin="round"/>
<path d="M9.74994 6.99976C10.1642 6.99976 10.4999 6.66397 10.4999 6.24976C10.4999 5.83554 10.1642 5.49976 9.74994 5.49976C9.33573 5.49976 8.99994 5.83554 8.99994 6.24976C8.99994 6.66397 9.33573 6.99976 9.74994 6.99976Z" fill="#191C1F"/>
</svg>
