<svg width="24" height="24" viewBox="0 0 24 24" fill="none" xmlns="http://www.w3.org/2000/svg">
<path d="M12 21C16.9706 21 21 16.9706 21 12C21 7.02944 16.9706 3 12 3C7.02944 3 3 7.02944 3 12C3 16.9706 7.02944 21 12 21Z" stroke="#292929" stroke-width="1.5" stroke-miterlimit="10"/>
<path d="M9 10.125C9 10.3321 8.83211 10.5 8.625 10.5C8.41789 10.5 8.25 10.3321 8.25 10.125C8.25 9.91789 8.41789 9.75 8.625 9.75C8.83211 9.75 9 9.91789 9 10.125Z" fill="#292929" stroke="#292929" stroke-width="1.5"/>
<path d="M15.375 11.25C15.9963 11.25 16.5 10.7463 16.5 10.125C16.5 9.50368 15.9963 9 15.375 9C14.7537 9 14.25 9.50368 14.25 10.125C14.25 10.7463 14.7537 11.25 15.375 11.25Z" fill="#292929"/>
<path d="M9 10.125C9 10.3321 8.83211 10.5 8.625 10.5C8.41789 10.5 8.25 10.3321 8.25 10.125C8.25 9.91789 8.41789 9.75 8.625 9.75C8.83211 9.75 9 9.91789 9 10.125Z" fill="#191C1F" stroke="#292929" stroke-width="1.5"/>
<path d="M15.375 11.25C15.9963 11.25 16.5 10.7463 16.5 10.125C16.5 9.50368 15.9963 9 15.375 9C14.7537 9 14.25 9.50368 14.25 10.125C14.25 10.7463 14.7537 11.25 15.375 11.25Z" fill="#191C1F"/>
<path d="M15.9 16.5C15.5035 15.8169 14.9346 15.25 14.2502 14.8559C13.5657 14.4618 12.7898 14.2543 12 14.2543C11.2102 14.2543 10.4343 14.4618 9.74984 14.8559C9.0654 15.25 8.49648 15.8169 8.1 16.5" stroke="#191C1F" stroke-width="1.5" stroke-linecap="round" stroke-linejoin="round"/>
</svg>
